<svg width="80" height="80" viewBox="0 0 80 80" fill="none" xmlns="http://www.w3.org/2000/svg">
<rect width="80" height="80" rx="40" fill="#7F614F"/>
<g clip-path="url(#clip0_1498_2526)">
<path d="M28.1504 46.5893C32.0957 51.3054 36.845 55.0187 42.2656 57.6461C44.3294 58.6241 47.0895 59.7845 50.1645 59.9834C50.3551 59.9917 50.5375 60 50.7281 60C52.7919 60 54.4496 59.2872 55.8006 57.8201C55.8089 57.8119 55.8255 57.7953 55.8338 57.7787C56.3145 57.1985 56.8615 56.6763 57.4335 56.121C57.823 55.748 58.2209 55.3585 58.6021 54.9606C60.3676 53.1206 60.3676 50.7833 58.5855 49.0012L53.6042 44.0199C52.7588 43.1413 51.7476 42.6772 50.6867 42.6772C49.6257 42.6772 48.6063 43.1413 47.736 44.0116L44.7687 46.9789C44.4952 46.8214 44.2134 46.6805 43.9482 46.5479C43.6166 46.3821 43.31 46.2246 43.0364 46.0506C40.3344 44.3349 37.881 42.097 35.5354 39.2209C34.3502 37.7207 33.5545 36.4608 32.9991 35.1761C33.7783 34.4716 34.5076 33.7339 35.2122 33.0128C35.4608 32.7559 35.7177 32.499 35.9747 32.242C36.8698 31.3469 37.3506 30.3108 37.3506 29.2582C37.3506 28.2056 36.8781 27.1695 35.9747 26.2743L33.5047 23.8044C33.2146 23.5143 32.9411 23.2325 32.6593 22.9424C32.1123 22.3788 31.5404 21.7986 30.9768 21.2764C30.1231 20.4393 29.1202 20 28.0592 20C27.0066 20 25.9954 20.4393 25.1085 21.2847L22.0087 24.3846C20.8814 25.5118 20.2432 26.8794 20.1106 28.4625C19.9531 30.4434 20.3178 32.5487 21.2627 35.0932C22.7132 39.0303 24.9013 42.6855 28.1504 46.5893ZM22.133 28.6366C22.2325 27.5342 22.6552 26.6142 23.4509 25.8185L26.5342 22.7352C27.0149 22.271 27.5453 22.0307 28.0592 22.0307C28.5648 22.0307 29.0787 22.271 29.5511 22.7518C30.1065 23.2656 30.6286 23.8044 31.1923 24.3763C31.4741 24.6664 31.7642 24.9565 32.0543 25.2549L34.5242 27.7248C35.0381 28.2387 35.3033 28.7609 35.3033 29.2748C35.3033 29.7886 35.0381 30.3108 34.5242 30.8247C34.2673 31.0816 34.0103 31.3469 33.7534 31.6038C32.9826 32.3829 32.2615 33.1206 31.4658 33.8251C31.4492 33.8417 31.4409 33.85 31.4243 33.8666C30.7364 34.5545 30.8441 35.2093 31.0099 35.7066C31.0182 35.7315 31.0265 35.748 31.0348 35.7729C31.673 37.3063 32.5599 38.765 33.944 40.5056C36.4306 43.5723 39.0497 45.9511 41.9341 47.7828C42.2905 48.0149 42.6717 48.1973 43.0281 48.3796C43.3597 48.5454 43.6664 48.7029 43.9399 48.8769C43.973 48.8935 43.9979 48.9101 44.031 48.9266C44.3046 49.0676 44.5698 49.1339 44.835 49.1339C45.4981 49.1339 45.9291 48.7111 46.07 48.5702L49.1699 45.4704C49.6506 44.9896 50.1728 44.7327 50.6867 44.7327C51.3166 44.7327 51.8305 45.1223 52.1537 45.4704L57.1516 50.46C58.1463 51.4546 58.138 52.5321 57.1268 53.5848C56.7787 53.9577 56.414 54.3141 56.0244 54.6871C55.4442 55.2507 54.8392 55.8309 54.2921 56.4857C53.339 57.5135 52.2034 57.9942 50.7364 57.9942C50.5955 57.9942 50.4463 57.9859 50.3054 57.9776C47.5868 57.8036 45.0588 56.7426 43.1608 55.8392C38.0054 53.3444 33.4799 49.8052 29.7252 45.3129C26.6336 41.5914 24.5532 38.1268 23.1773 34.4136C22.3236 32.1343 22.0004 30.3025 22.133 28.6366Z" fill="white"/>
</g>
<defs>
<clipPath id="clip0_1498_2526">
<rect width="40" height="40" fill="white" transform="translate(20 20)"/>
</clipPath>
</defs>
</svg>
