<svg width="80" height="80" viewBox="0 0 80 80" fill="none" xmlns="http://www.w3.org/2000/svg">
<rect width="80" height="80" rx="40" fill="#7F614F"/>
<path d="M39.9998 20C31.8521 20 25.2236 26.6284 25.2236 34.7762C25.2236 37.4585 26.4266 40.3433 26.477 40.465C26.8655 41.3872 27.6322 42.8196 28.185 43.6593L38.3162 59.01C38.7308 59.6393 39.3444 60 39.9998 60C40.6552 60 41.2688 59.6393 41.6834 59.0109L51.8155 43.6593C52.3692 42.8196 53.135 41.3872 53.5235 40.465C53.5739 40.3442 54.776 37.4594 54.776 34.7762C54.776 26.6284 48.1476 20 39.9998 20ZM51.9207 39.7905C51.5739 40.6171 50.8603 41.9496 50.364 42.7023L40.2319 58.0539C40.032 58.3572 39.9685 58.3572 39.7686 58.0539L29.6365 42.7023C29.1402 41.9496 28.4266 40.6163 28.0798 39.7897C28.065 39.754 26.962 37.0987 26.962 34.7762C26.962 27.5871 32.8108 21.7384 39.9998 21.7384C47.1889 21.7384 53.0376 27.5871 53.0376 34.7762C53.0376 37.1021 51.932 39.7645 51.9207 39.7905Z" fill="white"/>
<path d="M39.9994 26.9541C35.6857 26.9541 32.1768 30.4639 32.1768 34.7768C32.1768 39.0897 35.6857 42.5995 39.9994 42.5995C44.3132 42.5995 47.8221 39.0897 47.8221 34.7768C47.8221 30.4639 44.3132 26.9541 39.9994 26.9541ZM39.9994 40.8611C36.6452 40.8611 33.9151 38.1318 33.9151 34.7768C33.9151 31.4217 36.6452 28.6925 39.9994 28.6925C43.3536 28.6925 46.0838 31.4217 46.0838 34.7768C46.0838 38.1318 43.3536 40.8611 39.9994 40.8611Z" fill="white"/>
</svg>
