<svg width="80" height="80" viewBox="0 0 80 80" fill="none" xmlns="http://www.w3.org/2000/svg">
<rect width="80" height="80" rx="40" fill="#7F614F"/>
<g clip-path="url(#clip0_1498_2529)">
<path d="M54.142 25.8578C50.3645 22.0803 45.342 20 39.9998 20C39.9995 20 40 20 39.9997 20C34.658 20 29.6352 22.0805 25.8578 25.8578C22.0804 29.6353 20 34.6577 20 40C20.0002 43.4007 20.8656 46.7431 22.5072 49.6994L20.0433 58.5125C19.9294 58.9201 20.0441 59.3574 20.3433 59.6566C20.6425 59.9559 21.0797 60.0705 21.4875 59.9566L30.3009 57.4927C33.2568 59.1345 36.5991 59.9999 39.9999 60C45.3422 60 50.3646 57.9196 54.1422 54.1421C57.9198 50.3646 60 45.3421 60 39.9999C59.9998 34.6577 57.9194 29.6353 54.142 25.8578ZM39.9998 57.6562C36.8478 57.6562 33.7538 56.8146 31.0521 55.2226C30.8702 55.1153 30.6645 55.0603 30.4572 55.0603C30.3514 55.0603 30.2453 55.0746 30.1416 55.1036L22.8609 57.1391L24.8963 49.8585C24.9822 49.5515 24.9392 49.2228 24.7774 48.9481C23.1854 46.246 22.3439 43.1518 22.3438 39.9999C22.3438 35.2837 24.1803 30.8499 27.5152 27.5151C30.85 24.1802 35.2838 22.3438 39.9998 22.3438C49.7353 22.3438 57.6559 30.2643 57.6562 39.9999C57.6562 49.7356 49.7356 57.6562 39.9998 57.6562Z" fill="white"/>
<path d="M48.6337 41.4983C47.9174 40.7819 46.9622 40.3874 45.944 40.3874C44.9259 40.3874 43.9707 40.7819 43.2546 41.4982L42.7113 42.0414C42.5773 42.1754 42.3972 42.2492 42.2043 42.2492C42.0113 42.2492 41.8312 42.1754 41.697 42.0411L37.9569 38.3011C37.8229 38.1672 37.7492 37.9871 37.7491 37.794C37.7491 37.601 37.8228 37.421 37.9566 37.2871L38.5 36.7438C39.9831 35.2607 39.9831 32.8476 38.5001 31.3646L37.4133 30.2775C36.6968 29.5613 35.7417 29.167 34.7236 29.167C33.7056 29.167 32.7504 29.5614 32.034 30.2778L31.2237 31.0882C29.5105 32.8014 28.8886 35.3527 29.4725 38.2722C30.0219 41.0194 31.5925 43.8005 33.8949 46.1032C36.7964 49.0043 40.4917 50.7365 43.78 50.7368H43.7807C45.8526 50.7368 47.6265 50.0583 48.91 48.7748L49.7204 47.9644C51.2034 46.4814 51.2034 44.0681 49.7204 42.5849L48.6337 41.4983ZM48.0632 46.3071L47.2528 47.1175C46.4182 47.952 45.2178 48.393 43.7808 48.393H43.7804C41.0997 48.3929 38.0238 46.9173 35.5523 44.446C33.5734 42.4669 32.2304 40.1111 31.7708 37.8126C31.3456 35.6863 31.7399 33.8868 32.8811 32.7455L33.6914 31.9351C33.965 31.6615 34.3316 31.5108 34.7237 31.5108C35.116 31.5108 35.4827 31.6615 35.7562 31.935L36.8429 33.0218C37.4121 33.5911 37.4121 34.5173 36.8429 35.0865L36.2995 35.6299C35.7229 36.2064 35.4054 36.9752 35.4054 37.7944C35.4055 38.6135 35.7232 39.3821 36.2997 39.9586L40.0398 43.6986C40.6165 44.2754 41.3853 44.5931 42.2044 44.5931C43.0234 44.5931 43.792 44.2755 44.3686 43.6989L44.9119 43.1557C45.1855 42.882 45.5521 42.7313 45.9441 42.7313C46.3362 42.7313 46.7028 42.882 46.9765 43.1557L48.0632 44.2424C48.6324 44.8115 48.6325 45.7379 48.0632 46.3071Z" fill="white"/>
</g>
<defs>
<clipPath id="clip0_1498_2529">
<rect width="40" height="40" fill="white" transform="translate(20 20)"/>
</clipPath>
</defs>
</svg>
