<svg width="80" height="80" viewBox="0 0 80 80" fill="none" xmlns="http://www.w3.org/2000/svg">
<rect width="80" height="80" rx="40" fill="#7F614F"/>
<g clip-path="url(#clip0_1408_2596)">
<path d="M59.1329 28.0109L55.9376 25.8303C55.0344 25.2118 53.8009 25.4425 53.1823 26.3456C52.7211 27.0192 52.72 27.9067 53.1795 28.5815L47.5948 35.608H23.5363C21.5834 35.6078 20.0002 37.1907 20 39.1435C19.9998 40.7183 21.0411 42.1033 22.554 42.5407C22.6887 48.4717 26.8372 53.5521 32.6215 54.8698V54.9921C32.6233 56.6183 33.941 57.936 35.5672 57.9378H42.966C44.5932 57.937 45.9125 56.6193 45.9153 54.9921V54.8695C51.6974 53.5508 55.8438 48.4719 55.9788 42.5429C57.8546 42.0037 58.9382 40.0458 58.3989 38.1699C57.9868 36.7363 56.7188 35.7158 55.2302 35.6197L57.5743 31.5819C58.6407 31.8273 59.7041 31.1617 59.9494 30.0954C60.1327 29.2993 59.8085 28.4722 59.1329 28.0128V28.0109ZM54.1486 29.4148L56.4446 30.9818L53.7602 35.608H49.226L54.1486 29.4148ZM42.966 56.6584H35.5672C34.688 56.6561 33.9623 55.9707 33.9096 55.0932C34.4413 55.1602 34.9766 55.1941 35.5124 55.1947H43.0244C43.5603 55.194 44.0956 55.16 44.6272 55.0932C44.5735 55.9716 43.8461 56.657 42.966 56.6584ZM43.0244 53.9172H35.5124C29.2315 53.9226 24.0717 48.9584 23.8345 42.682H54.6987C54.4621 48.9572 49.3041 53.9213 43.0244 53.9172ZM57.26 39.145C57.2612 40.3916 56.2516 41.4032 55.0049 41.4044C55.0035 41.4044 55.002 41.4044 55.0006 41.4044C21.2498 41.4044 23.4764 41.4143 23.2614 41.3869C22.023 41.2351 21.1422 40.1081 21.294 38.8697C21.4329 37.7369 22.3949 36.8855 23.5362 36.8855H55.0005C56.2476 36.8876 57.258 37.898 57.26 39.145ZM58.5985 30.0488C58.3801 30.3672 57.947 30.452 57.6247 30.2394C57.6223 30.2373 57.6197 30.2355 57.617 30.2339L57.6104 30.2306L54.4202 28.0536C54.0976 27.8335 54.0147 27.3936 54.2348 27.071C54.4549 26.7484 54.8948 26.6655 55.2174 26.8856L58.4131 29.0658C58.7357 29.2861 58.8187 29.7261 58.5985 30.0488Z" fill="white"/>
<path d="M28.5458 30.5857C30.7614 32.0205 33.9115 31.9271 36.4301 31.2018L38.1369 32.3067C38.4265 32.5083 38.8246 32.4369 39.0261 32.1474C39.2277 31.8578 39.1563 31.4597 38.8668 31.2582C38.8549 31.25 38.8428 31.2421 38.8304 31.2348L37.1236 30.1295C36.9605 28.9837 36.2038 25.0467 33.3351 23.1898C30.0263 21.0497 25.3468 22.6021 25.1493 22.6671C24.8689 22.7621 24.6906 23.0374 24.7186 23.3322C24.7383 23.5401 25.2395 28.4456 28.5458 30.5857ZM32.6398 24.2618C34.4338 25.4229 35.2631 27.6867 35.6274 29.1617L31.287 26.3511C30.9975 26.1495 30.5993 26.2209 30.3979 26.5105C30.1963 26.8 30.2676 27.1981 30.5572 27.3996C30.569 27.4078 30.5811 27.4157 30.5935 27.4231L34.9339 30.2337C33.4392 30.5045 31.0344 30.6746 29.2397 29.5135C27.0266 28.0806 26.2812 24.9684 26.0666 23.7336C27.2806 23.4201 30.4194 22.8251 32.6398 24.2618Z" fill="white"/>
</g>
<defs>
<clipPath id="clip0_1408_2596">
<rect width="40" height="40" fill="white" transform="translate(20 20)"/>
</clipPath>
</defs>
</svg>
