<svg width="80" height="80" viewBox="0 0 80 80" fill="none" xmlns="http://www.w3.org/2000/svg">
<rect width="80" height="80" rx="40" fill="#7F614F"/>
<g clip-path="url(#clip0_1408_2597)">
<path d="M52.9237 46.6419C52.9237 47.6838 52.0791 48.5283 51.0373 48.5283C49.9955 48.5283 49.1509 47.6837 49.1509 46.6419C49.1509 45.6001 51.0373 43.1201 51.0373 43.1201C51.0373 43.1201 52.9237 45.6 52.9237 46.6419Z" stroke="white" stroke-miterlimit="10" stroke-linecap="round" stroke-linejoin="round"/>
<path d="M43.4163 49.6087C41.9663 53.036 39.3178 55.1415 37.8327 56.1087C37.1959 56.5235 36.4506 56.7399 35.6905 56.7399H33.2045C32.4452 56.7399 31.6991 56.5235 31.0624 56.1087C28.8084 54.6399 23.8702 50.5478 24.5194 43.1868C24.042 41.9759 23.7795 40.6563 23.7795 39.2751C23.7795 33.3313 28.6405 31.0001 34.6038 31.0853C40.4155 31.1688 45.1264 33.4845 45.1155 39.2962C45.1147 39.6642 45.0952 40.0282 45.0577 40.3868" stroke="white" stroke-miterlimit="10" stroke-linecap="round" stroke-linejoin="round"/>
<path d="M40.7445 59.4145L40.0945 54.3223" stroke="white" stroke-miterlimit="10" stroke-linecap="round" stroke-linejoin="round"/>
<path d="M28.8006 54.3213L28.1506 59.4143" stroke="white" stroke-miterlimit="10" stroke-linecap="round" stroke-linejoin="round"/>
<path d="M24.6515 46.7772C20.646 47.66 20.1288 42.4819 20.9468 41.4186C21.9546 40.1092 23.9444 41.385 23.9952 41.4186C23.996 41.4186 23.996 41.4186 23.996 41.4186" stroke="white" stroke-miterlimit="10" stroke-linecap="round" stroke-linejoin="round"/>
<path d="M28.3369 42.4131C28.3369 42.4131 29.4014 43.0214 30.5268 42.4131" stroke="white" stroke-miterlimit="10" stroke-linecap="round" stroke-linejoin="round"/>
<path d="M38.3608 42.4131C38.3608 42.4131 39.4254 43.0214 40.5507 42.4131" stroke="white" stroke-miterlimit="10" stroke-linecap="round" stroke-linejoin="round"/>
<path d="M39.8879 37.5707C39.8879 37.5707 41.0813 37.2895 41.9877 38.1923" stroke="white" stroke-miterlimit="10" stroke-linecap="round" stroke-linejoin="round"/>
<path d="M29.007 37.5707C29.007 37.5707 27.8136 37.2895 26.9072 38.1923" stroke="white" stroke-miterlimit="10" stroke-linecap="round" stroke-linejoin="round"/>
<path d="M21.76 40.8796C21.76 40.8796 20.3584 33.4296 23.41 29.9366C27.5553 25.1905 34.6038 25.485 34.6038 25.485C34.6038 25.485 41.6522 25.1905 45.7975 29.9366C47.1095 31.4387 47.5408 33.6723 47.6059 35.7307" stroke="white" stroke-miterlimit="10" stroke-linecap="round" stroke-linejoin="round"/>
<path d="M39.7983 26.2359C39.9468 25.8383 40.0264 25.4164 40.0264 24.9805C40.0264 22.5531 37.5639 20.5859 34.5272 20.5859C31.4897 20.5859 29.0272 22.5531 29.0272 24.9805C29.0272 25.432 29.1124 25.868 29.2718 26.2781" stroke="white" stroke-miterlimit="10" stroke-linecap="round" stroke-linejoin="round"/>
<path d="M34.527 43.6797V45.9804" stroke="white" stroke-miterlimit="10" stroke-linecap="round" stroke-linejoin="round"/>
<path d="M57.2731 46.2066C57.2731 46.6504 57.2263 47.0832 57.138 47.5004C56.5411 50.3207 54.0325 52.4426 51.0372 52.4426C48.0419 52.4426 45.5333 50.3207 44.9364 47.5004C44.8481 47.0832 44.8013 46.6504 44.8013 46.2066C44.8013 42.7684 47.5989 39.9707 51.0372 39.9707C54.4763 39.9707 57.2731 42.7684 57.2731 46.2066Z" stroke="white" stroke-miterlimit="10" stroke-linecap="round" stroke-linejoin="round"/>
<path d="M52.4022 54.4409C56.3375 53.7936 59.3454 50.3932 59.3823 46.2834C59.4237 41.6925 55.6969 37.8986 51.1059 37.8616C46.8509 37.8274 43.3253 40.9782 42.769 45.0728L40.186 45.7327C39.6952 45.8581 39.6952 46.5553 40.186 46.6807L42.769 47.3406C43.2614 50.9651 46.0805 53.8501 49.6728 54.441" stroke="white" stroke-miterlimit="10" stroke-linecap="round" stroke-linejoin="round"/>
<path d="M52.907 46.8906C54.3179 46.9859 55.7281 47.1891 57.1382 47.5C56.5413 50.3203 54.0327 52.4422 51.0374 52.4422C48.0421 52.4422 45.5335 50.3203 44.9366 47.5C46.3468 47.1891 47.757 46.9859 49.1671 46.8906" stroke="white" stroke-miterlimit="10" stroke-linecap="round" stroke-linejoin="round"/>
<path d="M32.5498 50.1475C32.5498 50.1475 34.3116 50.813 36.5041 50.1475" stroke="white" stroke-miterlimit="10" stroke-linecap="round" stroke-linejoin="round"/>
</g>
<defs>
<clipPath id="clip0_1408_2597">
<rect width="40" height="40" fill="white" transform="translate(20 20)"/>
</clipPath>
</defs>
</svg>
