<svg width="80" height="80" viewBox="0 0 80 80" fill="none" xmlns="http://www.w3.org/2000/svg">
<rect width="80" height="80" rx="40" fill="#7F614F"/>
<path d="M52.7774 59.2191H27.2227C25.1959 59.2191 23.5527 57.576 23.5527 55.5491V48.0313C23.5527 46.0045 25.1959 44.3613 27.2227 44.3613H52.7774C54.8043 44.3613 56.4474 46.0045 56.4474 48.0313V55.5491C56.4474 57.576 54.8043 59.2191 52.7774 59.2191Z" stroke="white" stroke-miterlimit="10" stroke-linecap="round" stroke-linejoin="round"/>
<path d="M51.6872 30.0766C54.254 30.0766 56.3349 27.9957 56.3349 25.4289C56.3349 22.8621 54.254 20.7812 51.6872 20.7812C49.1204 20.7812 47.0396 22.8621 47.0396 25.4289C47.0396 27.9957 49.1204 30.0766 51.6872 30.0766Z" stroke="white" stroke-miterlimit="10" stroke-linecap="round" stroke-linejoin="round"/>
<path d="M26.4846 35.2473C26.6904 38.829 28.2743 42.0411 30.715 44.3609H49.5455C52.1666 41.8703 53.8002 38.3516 53.8002 34.4508C53.8002 32.8492 53.5244 31.3109 53.0181 29.8828C52.5963 30.0086 52.1494 30.0766 51.6869 30.0766C49.1205 30.0766 47.0392 27.9961 47.0392 25.4289C47.0392 24.5633 47.2759 23.7531 47.6884 23.0594C45.5236 21.6195 42.9252 20.7812 40.1306 20.7812C34.685 20.7812 29.984 23.9655 27.7863 28.5732" stroke="white" stroke-miterlimit="10" stroke-linecap="round" stroke-linejoin="round"/>
<path d="M45.1593 31.6258L45.0246 31.4911C43.809 30.2755 42.1657 29.5845 40.4468 29.566C38.7367 29.5476 37.1017 28.86 35.8924 27.6507L34.6392 26.3975L34.6413 30.5996C34.6429 33.6608 35.8597 36.5962 38.0243 38.7608C39.9946 40.7311 43.1891 40.7311 45.1593 38.7608C47.1296 36.7906 47.1296 33.5961 45.1593 31.6258Z" stroke="white" stroke-miterlimit="10" stroke-linecap="round" stroke-linejoin="round"/>
<path d="M41.2124 34.8145L42.4387 36.0408C43.7901 37.3921 44.6789 39.1194 45.0034 40.9768" stroke="white" stroke-miterlimit="10" stroke-linecap="round" stroke-linejoin="round"/>
<path d="M26.6028 47.7412H28.2933V55.65" stroke="white" stroke-miterlimit="10" stroke-linecap="round" stroke-linejoin="round"/>
<path d="M53.0222 47.6143L46.8933 55.2304" stroke="white" stroke-miterlimit="10" stroke-linecap="round" stroke-linejoin="round"/>
<path d="M47.7124 50.0835C48.4924 50.0835 49.1247 49.4511 49.1247 48.6711C49.1247 47.8911 48.4924 47.2588 47.7124 47.2588C46.9324 47.2588 46.3 47.8911 46.3 48.6711C46.3 49.4511 46.9324 50.0835 47.7124 50.0835Z" stroke="white" stroke-miterlimit="10" stroke-linecap="round" stroke-linejoin="round"/>
<path d="M53.0275 55.3346C53.579 54.7831 53.579 53.8888 53.0275 53.3373C52.4759 52.7857 51.5817 52.7857 51.0302 53.3373C50.4786 53.8888 50.4786 54.7831 51.0302 55.3346C51.5817 55.8862 52.4759 55.8862 53.0275 55.3346Z" stroke="white" stroke-miterlimit="10" stroke-linecap="round" stroke-linejoin="round"/>
<path d="M35.8441 53.5246C35.8441 54.7877 34.8202 55.8116 33.5571 55.8116C32.294 55.8116 31.27 54.7877 31.27 53.5246V49.8671C31.27 48.604 32.2939 47.5801 33.5571 47.5801C34.8202 47.5801 35.8441 48.604 35.8441 49.8671V53.5246Z" stroke="white" stroke-miterlimit="10" stroke-linecap="round" stroke-linejoin="round"/>
<path d="M43.2826 53.5246C43.2826 54.7877 42.2587 55.8116 40.9955 55.8116C39.7324 55.8116 38.7085 54.7877 38.7085 53.5246V49.8671C38.7085 48.604 39.7324 47.5801 40.9955 47.5801C42.2587 47.5801 43.2826 48.604 43.2826 49.8671V53.5246Z" stroke="white" stroke-miterlimit="10" stroke-linecap="round" stroke-linejoin="round"/>
<path d="M49.8821 25.5296L51.0853 26.7327L53.2907 24.5273" stroke="white" stroke-miterlimit="10" stroke-linecap="round" stroke-linejoin="round"/>
<circle cx="26.7065" cy="31.8643" r="0.78125" fill="white"/>
</svg>
