<svg width="80" height="80" viewBox="0 0 80 80" fill="none" xmlns="http://www.w3.org/2000/svg">
<rect width="80" height="80" rx="40" fill="#7F614F"/>
<path d="M49.3581 25.7996C47.7054 25.6155 46.0327 25.835 44.4834 26.4393C42.9342 27.0435 41.5546 28.0145 40.4631 29.269L39.9887 29.8046L39.5143 29.269C38.4228 28.0144 37.0433 27.0433 35.494 26.439C33.9447 25.8348 32.272 25.6154 30.6193 25.7996C28.9495 25.977 27.3477 26.5566 25.951 27.4887C24.5543 28.4208 23.4044 29.6776 22.5999 31.1515C21.7622 32.6894 21.3008 34.4039 21.2535 36.1545C21.2063 37.9051 21.5745 39.6419 22.3281 41.2228C23.4293 43.5103 25.3581 45.029 27.2231 46.4971C27.5981 46.7896 27.9674 47.0828 28.3312 47.3803L39.6087 56.6121C39.7201 56.7028 39.8594 56.7523 40.0031 56.7523C40.1467 56.7523 40.286 56.7028 40.3974 56.6121L50.3312 48.464C50.8968 47.9996 51.5056 47.5403 52.0943 47.0959C54.1274 45.5621 56.2299 43.9753 57.4924 41.5959C58.3382 39.9813 58.7703 38.1821 58.7503 36.3595C58.7302 34.5369 58.2585 32.7478 57.3774 31.1521C56.573 29.6782 55.4231 28.4212 54.0265 27.489C52.6298 26.5568 51.0279 25.9771 49.3581 25.7996ZM56.3881 41.009C55.2556 43.1446 53.2631 44.6465 51.3412 46.0984C50.7424 46.5496 50.1237 47.0178 49.5387 47.4971L39.9999 55.3184L29.1249 46.4134C28.7549 46.1103 28.3749 45.8128 27.9999 45.514C26.1662 44.0709 24.4337 42.7078 23.4581 40.6809C22.7898 39.2813 22.4629 37.7432 22.5041 36.1927C22.5452 34.6423 22.9534 33.1237 23.6949 31.7615C24.4875 30.3162 25.654 29.1105 27.0725 28.2708C28.4909 27.431 30.1091 26.9881 31.7574 26.9884C33.0508 26.9894 34.329 27.2675 35.5059 27.8038C36.6828 28.3402 37.7312 29.1224 38.5806 30.0978L39.5106 31.1471C39.5733 31.2107 39.648 31.2612 39.7304 31.2956C39.8128 31.3301 39.9012 31.3478 39.9906 31.3478C40.0799 31.3478 40.1683 31.3301 40.2507 31.2956C40.3331 31.2612 40.4078 31.2107 40.4706 31.1471L41.3999 30.0978C42.3606 28.9943 43.5742 28.14 44.9371 27.608C46.2999 27.0759 47.7714 26.882 49.2256 27.0428C50.6965 27.1998 52.1075 27.7111 53.3376 28.5329C54.5676 29.3548 55.58 30.4626 56.2881 31.7615C57.068 33.1745 57.4854 34.7588 57.5029 36.3727C57.5203 37.9865 57.1373 39.5795 56.3881 41.009Z" fill="white"/>
<path d="M36.9268 37.113C37.1187 37.3412 37.3569 37.5261 37.6256 37.6554C37.8944 37.7847 38.1875 37.8555 38.4856 37.863C38.5362 37.863 38.5868 37.863 38.6368 37.8561C38.9585 37.8211 39.2674 37.7111 39.5388 37.5349C39.8102 37.3587 40.0364 37.1213 40.1993 36.8418C40.5407 36.2548 40.6935 35.5771 40.6369 34.9004C40.5803 34.2237 40.3172 33.5808 39.8831 33.0586C39.6812 32.8036 39.4195 32.6025 39.1211 32.4732C38.8227 32.3439 38.497 32.2903 38.173 32.3174C37.8489 32.3444 37.5365 32.4512 37.2637 32.6282C36.9909 32.8051 36.7661 33.0469 36.6093 33.3318C36.2673 33.9184 36.1138 34.5961 36.1697 35.2728C36.2256 35.9496 36.4881 36.5929 36.9218 37.1155L36.9268 37.113ZM37.6699 33.9936C37.732 33.88 37.8191 33.782 37.9245 33.7069C38.03 33.6318 38.151 33.5815 38.2787 33.5599C38.2958 33.5599 38.3126 33.5599 38.3293 33.5599C38.4499 33.5692 38.5672 33.6032 38.6741 33.6598C38.7809 33.7163 38.875 33.7942 38.9506 33.8886C39.2058 34.2082 39.3602 34.5964 39.3942 35.0039C39.4283 35.4115 39.3404 35.8199 39.1418 36.1774C39.0885 36.2975 39.0039 36.4011 38.8968 36.4772C38.7897 36.5534 38.6641 36.5994 38.5332 36.6103C38.4022 36.6212 38.2707 36.5967 38.1525 36.5394C38.0343 36.482 37.9337 36.3939 37.8612 36.2843C37.6067 35.9644 37.4527 35.5762 37.4186 35.1689C37.3846 34.7615 37.4721 34.3532 37.6699 33.9955V33.9936Z" fill="white"/>
<path d="M42.5987 42.6609C43.0193 41.1871 41.9737 39.5927 40.2743 39.1059C38.575 38.619 36.845 39.424 36.4206 40.9102C36.291 41.3803 36.0423 41.8089 35.6986 42.1548C35.355 42.5006 34.9279 42.752 34.4587 42.8846C34.0106 42.9921 33.602 43.2237 33.2796 43.553C32.9572 43.8822 32.7342 44.2956 32.6362 44.7459C32.4287 45.4721 32.2543 46.3871 32.7518 47.0171C33.28 47.6865 34.1968 47.6421 35.2606 47.599C36.111 47.5186 36.9688 47.5754 37.8012 47.7671C38.6097 48.0437 39.3684 48.4486 40.0481 48.9665C40.6046 49.4514 41.2877 49.7679 42.0175 49.879C42.1771 49.8791 42.3356 49.8512 42.4856 49.7965C43.2406 49.524 43.5756 48.6559 43.7831 47.929C43.9382 47.4952 43.9676 47.0265 43.8681 46.5767C43.7686 46.1269 43.5442 45.7144 43.2206 45.3865C42.8907 45.0244 42.66 44.5831 42.551 44.1055C42.4421 43.6279 42.4585 43.1302 42.5987 42.6609ZM42.5812 47.5859C42.3187 48.504 42.0868 48.6115 42.0618 48.6209C41.86 48.6946 41.2218 48.2546 40.7543 47.9334C39.9647 47.3376 39.0831 46.8747 38.1443 46.5627C37.4979 46.3904 36.8307 46.309 36.1618 46.3209C35.8237 46.3209 35.5018 46.3359 35.2056 46.3484C34.6387 46.3727 33.865 46.4109 33.7325 46.2402C33.7156 46.219 33.5762 46.0052 33.8381 45.0871C33.8755 44.8434 33.9865 44.617 34.1564 44.4382C34.3262 44.2595 34.5466 44.137 34.7881 44.0871C35.4663 43.8963 36.0839 43.5337 36.581 43.0344C37.0782 42.5352 37.4382 41.9161 37.6262 41.2371C37.8575 40.4246 38.8912 40.0084 39.9312 40.3046C40.9712 40.6009 41.6281 41.5027 41.3943 42.3209C41.1966 42.996 41.1763 43.7108 41.3352 44.3961C41.4942 45.0814 41.8271 45.7142 42.3018 46.2334C42.4812 46.4031 42.6041 46.6239 42.6541 46.8657C42.7041 47.1076 42.6786 47.3589 42.5812 47.5859Z" fill="white"/>
<path d="M33.7913 41.1342C34.0042 41.1347 34.2156 41.0987 34.4163 41.028C34.718 40.9111 34.9882 40.7253 35.2052 40.4853C35.4223 40.2454 35.5802 39.958 35.6663 39.6461C35.8554 38.9922 35.8293 38.2948 35.592 37.6567C35.077 36.2124 33.7113 35.3774 32.547 35.7917C31.3826 36.2061 30.8582 37.7199 31.3751 39.1624C31.5944 39.8064 32.0149 40.3629 32.5745 40.7499C32.9335 40.9948 33.3568 41.1285 33.7913 41.1342ZM32.9695 36.9686C33.0385 36.9441 33.1112 36.9319 33.1845 36.9324C33.4779 36.9852 33.75 37.121 33.9684 37.3239C34.1869 37.5267 34.3426 37.788 34.417 38.0767C34.562 38.4603 34.5822 38.8798 34.4745 39.2755C34.4538 39.4053 34.3986 39.5272 34.3146 39.6283C34.2306 39.7295 34.121 39.8061 33.9972 39.8503C33.8734 39.8945 33.7399 39.9045 33.6109 39.8794C33.4819 39.8542 33.362 39.7948 33.2638 39.7074C32.9303 39.4689 32.6805 39.1312 32.5501 38.7424C32.2713 37.9617 32.4638 37.1492 32.9695 36.9686Z" fill="white"/>
<path d="M42.1556 38.8888C42.4914 39.1293 42.8951 39.2566 43.3081 39.2519C43.5434 39.2508 43.7772 39.2148 44.0019 39.145C44.6488 38.9331 45.2104 38.5187 45.6038 37.9632C46.5219 36.7044 46.4456 35.1375 45.4306 34.3963C44.4338 33.6694 42.8863 34.0838 41.9825 35.3225C41.574 35.8671 41.3514 36.5286 41.3475 37.2094C41.3416 37.533 41.4117 37.8535 41.552 38.1451C41.6924 38.4368 41.8991 38.6915 42.1556 38.8888ZM42.9925 36.0625C43.1349 35.8451 43.3242 35.6624 43.5464 35.5276C43.7687 35.3929 44.0183 35.3095 44.2769 35.2838C44.4258 35.2802 44.572 35.3239 44.6944 35.4088C45.1281 35.7257 45.0819 36.5594 44.5938 37.2294C44.3585 37.5653 44.0232 37.8184 43.6356 37.9525C43.5167 38.0082 43.3849 38.0309 43.2542 38.0183C43.1235 38.0056 42.9985 37.9581 42.8924 37.8808C42.7863 37.8034 42.7029 37.6989 42.6509 37.5783C42.5989 37.4577 42.5803 37.3253 42.5969 37.195C42.6061 36.7853 42.7446 36.3889 42.9925 36.0625Z" fill="white"/>
<path d="M44.8582 40.3017C43.6707 41.2667 43.3332 42.8329 44.1082 43.7929C44.3074 44.0277 44.5569 44.2147 44.8382 44.3398C45.1195 44.465 45.4254 44.5253 45.7332 44.5161H45.83C46.5097 44.4771 47.1588 44.2205 47.6813 43.7842C48.8688 42.8192 49.2063 41.2529 48.4313 40.2929C47.6563 39.3329 46.0482 39.3361 44.8582 40.3017ZM46.8938 42.8123C46.5804 43.0769 46.1915 43.2357 45.7825 43.2661C45.6538 43.2782 45.5239 43.2611 45.4027 43.2162C45.2814 43.1713 45.1718 43.0997 45.0819 43.0067C44.7438 42.5892 45.0019 41.7954 45.6444 41.2729C45.9715 40.9952 46.3819 40.8344 46.8107 40.8161C46.9312 40.8085 47.052 40.8282 47.1639 40.8738C47.2757 40.9193 47.3759 40.9895 47.4569 41.0792C47.7963 41.4961 47.5382 42.2892 46.8938 42.8123Z" fill="white"/>
</svg>
